<?xml version="1.0" encoding="UTF-8"?>
<svg width="1200pt" height="1200pt" version="1.1" viewBox="0 0 1200 1200" xmlns="http://www.w3.org/2000/svg">
 <path d="m1035.3 1031.4h-20.812v-378.79c0-10.359-8.3906-18.75-18.75-18.75s-18.75 8.3906-18.75 18.75v378.79h-862.45v-599.9h452.02c10.359 0 18.75-8.3906 18.75-18.75s-8.3906-18.75-18.75-18.75h-510.32c-10.359 0-18.75 8.3906-18.75 18.75s8.3906 18.75 18.75 18.75h20.812v599.9h-20.812c-10.359 0-18.75 8.3906-18.75 18.75s8.3906 18.75 18.75 18.75h239.58l-39.188 65.203c-3.4688 5.8125-3.5625 13.031-0.23438 18.891 3.3281 5.9062 9.5625 9.5156 16.312 9.5156h171.19c6.5625 0 12.703-3.4688 16.078-9.0938l50.766-84.516h126.37l50.766 84.516c3.375 5.625 9.4688 9.0938 16.078 9.0938h171.19c6.75 0 12.984-3.6562 16.312-9.5156s3.2344-13.078-0.23438-18.891l-39.188-65.203h183.32c10.359 0 18.75-8.3906 18.75-18.75s-8.3906-18.75-18.75-18.75zm-602.06 93.609h-127.4l33.703-56.109h127.4zm408.71 0h-127.4l-33.703-56.109h127.4z" fill="#4e7663"/>
 <path d="m641.21 418.87c21.141 22.969 33.891 52.641 36.281 83.906-7.2188 9.4688-11.672 21.141-11.672 33.938v47.766c0 26.109 17.953 47.953 42.141 54.234l9 29.438c8.1094 26.531 32.25 44.344 59.953 44.344h63.609c27.75 0 51.844-17.812 59.953-44.344l9-29.438c24.188-6.3281 42.141-28.125 42.141-54.234v-47.766c0-12.797-4.4531-24.422-11.625-33.891 2.5312-30.891 15.891-61.312 38.062-85.969 37.547-41.766 58.219-95.672 58.219-151.78 0-64.641-27.656-126.47-75.844-169.64-48.188-43.125-112.92-63.75-177.71-56.484-106.41 11.812-190.78 97.875-200.63 204.71-6 65.156 15 127.4 59.062 175.26zm199.31 256.08h-63.609c-11.156 0-20.859-7.1719-24.094-17.812l-5.0156-16.453h121.92l-5.0156 16.453c-3.2812 10.688-12.938 17.812-24.094 17.812zm73.641-90.516c0 10.359-8.3906 18.75-18.75 18.75h-173.34c-10.359 0-18.75-8.3906-18.75-18.75v-47.766c0-10.359 8.3906-18.75 18.75-18.75h173.34c10.359 0 18.75 8.3906 18.75 18.75zm-294.71-337.4c8.2031-89.156 78.609-160.97 167.39-170.86 54.984-6.1406 107.77 10.641 148.6 47.156 40.266 36.047 63.375 87.703 63.375 141.71 0 46.828-17.25 91.875-48.609 126.74-23.297 25.922-38.719 57.094-45 89.672-3.1875-0.5625-6.4219-0.98438-9.7969-0.98438h-173.34c-3.2812 0-6.4688 0.42188-9.6562 0.98438-6.0469-32.766-21-63.375-43.641-87.938-36.797-39.984-54.328-91.969-49.312-146.44z" fill="#4e7663"/>
 <path d="m1143.7 262.22h-51.234c-10.359 0-18.75 8.3906-18.75 18.75s8.3906 18.75 18.75 18.75h51.234c10.359 0 18.75-8.3906 18.75-18.75s-8.3906-18.75-18.75-18.75z" fill="#4e7663"/>
 <path d="m1041.2 136.97c3.7031 0 7.4531-1.0781 10.734-3.375l41.953-29.391c8.4844-5.9531 10.547-17.625 4.5938-26.109s-17.625-10.5-26.109-4.5938l-41.953 29.391c-8.4844 5.9531-10.547 17.625-4.5938 26.109 3.6562 5.2031 9.4688 8.0156 15.375 8.0156z" fill="#4e7663"/>
 <path d="m1052 428.39c-8.4844-5.9531-20.156-3.8906-26.109 4.5938s-3.8906 20.156 4.5938 26.109l41.953 29.391c3.2812 2.2969 7.0312 3.375 10.734 3.375 5.9062 0 11.719-2.7656 15.375-8.0156 5.9531-8.4844 3.8906-20.156-4.5938-26.109l-41.953-29.391z" fill="#4e7663"/>
 <path d="m473.72 299.72h51.234c10.359 0 18.75-8.3906 18.75-18.75s-8.3906-18.75-18.75-18.75h-51.234c-10.359 0-18.75 8.3906-18.75 18.75s8.3906 18.75 18.75 18.75z" fill="#4e7663"/>
 <path d="m565.5 133.55c3.2812 2.2969 7.0312 3.375 10.734 3.375 5.9062 0 11.719-2.7656 15.375-8.0156 5.9531-8.4844 3.8906-20.156-4.5938-26.109l-41.953-29.391c-8.4844-5.9531-20.156-3.8906-26.109 4.5938s-3.8906 20.156 4.5938 26.109l41.953 29.391z" fill="#4e7663"/>
</svg>
